<?xml version="1.0" encoding="utf-8"?>
<!-- Generator: Adobe Illustrator 15.0.0, SVG Export Plug-In . SVG Version: 6.00 Build 0)  -->
<!DOCTYPE svg PUBLIC "-//W3C//DTD SVG 1.1//EN" "http://www.w3.org/Graphics/SVG/1.1/DTD/svg11.dtd">
<svg version="1.1" id="Layer_1" xmlns="http://www.w3.org/2000/svg" xmlns:xlink="http://www.w3.org/1999/xlink" x="0px" y="0px"
	 width="27.977px" height="27.685px" viewBox="292.02 382.149 27.977 27.685" enable-background="new 292.02 382.149 27.977 27.685"
	 xml:space="preserve">
<path fill="none" stroke="#FFFFFF" stroke-width="2" stroke-miterlimit="10" d="M318.602,396.002
	c-3.465-0.041-6.262-2.799-6.262-6.203c-3.475,0-6.288-2.741-6.331-6.135c-1.35-0.201-2.73,0.015-3.947,0.622l-3.423,1.709
	c-1.232,0.615-2.234,1.597-2.861,2.804l-1.738,3.342c-0.629,1.211-0.852,2.585-0.635,3.928l0.598,3.701
	c0.217,1.34,0.861,2.579,1.84,3.54l2.711,2.656c0.977,0.957,2.237,1.586,3.601,1.799l3.798,0.589
	c1.362,0.211,2.758-0.006,3.987-0.619l3.423-1.708c1.232-0.616,2.233-1.598,2.861-2.806l1.737-3.341
	C318.584,398.684,318.805,397.328,318.602,396.002L318.602,396.002z M302.039,401.445c-0.875,0-1.584-0.696-1.584-1.553
	c0-0.857,0.71-1.553,1.584-1.553c0.875,0,1.584,0.695,1.584,1.553C303.623,400.749,302.914,401.445,302.039,401.445z
	 M303.623,393.682c-0.875,0-1.584-0.695-1.584-1.553c0-0.857,0.709-1.553,1.584-1.553s1.584,0.696,1.584,1.553
	C305.208,392.987,304.498,393.682,303.623,393.682z M311.545,399.893c-0.875,0-1.584-0.695-1.584-1.553s0.709-1.553,1.584-1.553
	s1.585,0.695,1.585,1.553S312.42,399.893,311.545,399.893z"/>
</svg>
